/* XPM */
static char *result[] = {
/* columns rows colors chars-per-pixel */
"32 32 10 1 ",
"  c #302639",
". c #563A3F",
"X c #686E3C",
"o c #79584F",
"O c #505060",
"+ c #94785C",
"@ c #8E9E3E",
"# c #707888",
"$ c #949EA8",
"% c #D5D5D5",
/* pixels */
"@@@@@@@##################@@@@@@@",
"@@@@@@O$$$$$$$$$$$$$$$$$$O@@@@@@",
"@@@@@O$$O######OO######O$$O@@@@@",
"@@@@@O$$.o..ooo..oooooo.$$O@@@@@",
"@@@@@O$$o+oo+++oo+++o++o$$O@@@@@",
"@@@@@O$$o+o++++oo+++o+++$$O@@@@@",
"@@@@@O$$o+o++++oo+++++++$$OX@@@@",
"@@@@@O$$o++++++oo+++++++$$OX@@@@",
"@@@@@O$#o++++++oo+++++++#$OX@@@@",
"@@@@O$$.o++++++oo+++++++o$$O@@@@",
"@@@@O$$o+++++++oo++++++++$$OX@@@",
"@@@@O$$o+++++++oo++++++++$$OX@@@",
"@@@@O$$o+++++++oo++++o+++$$OX@@@",
"@@@@O$$o+++++++oo++++o+++$$OX@@@",
"@@@@O$$o+++%o$+oo+%o$++++$$OX@@@",
"@@@@O$$o+++o$$+oo+$$o++++$$OX@@@",
"@@@@O$$o++++oo+oo+oo+++++$$OX@@@",
"@@@@O$$o+++++++oo++++++++$$OX@@@",
"@@@@O$$o+++++++oo++++++++$$OXX@@",
"@@@@O$$o+++++++oo++++++++$$OXX@@",
"@@@@O$#o++++++oooo+++++++#$OXX@@",
"@@@O$$.o+++o++o..o++++o++o$$OX@@",
"@@@O$$o++o+o++o..o++++o++o$$OX@@",
"@@@O$$ooo.o.oo....oooo.ooo$$OX@@",
"@@@O$$$$$$$$$$$$$$$$$$$$$$$$OX@@",
"@@@O##$$$$$$$$$$$$$$$$$$$$##OX@@",
"@@@O########################OX@@",
"@@@ OO####################OO X@@",
"@@@  OOOOOOOOOOOOOOOOOOOOOO  X@@",
"@@@@X                      XX@@@",
"@@@@@@XXXXXXXXXXXXXXXXXXXXXX@@@@",
"@@@@@@@XXXXXXXXXXXXXXXXXXX@@@@@@"
};
