/* XPM */
static char *result[] = {
/* columns rows colors chars-per-pixel */
"32 32 11 1 ",
"  c #201729",
". c #331F29",
"X c #302639",
"o c #563A3F",
"O c #686E3C",
"+ c #79584F",
"@ c #505060",
"# c #94785C",
"$ c #8E9E3E",
"% c #707888",
"& c #949EA8",
/* pixels */
"$$++$$$%%%%%%%%%%%%%%%%%%$$$++$$",
"$$+#o$@&&&&&&&&&&&&&&&&&&@$o#+$$",
"$$+#+oo&&&&&&&&&&&&&&&&&&oo+#+$$",
"$$+#+o+oo%%%%%%%%%%%%%%oo+o+#+$$",
"$$+#+o+oo.@@@@@@@@@@@@.oo+o+#+$$",
"$$+#+++oo.@@@@@@@@@@@@.oo+++#+$$",
"$$+#+++oo.            .oo+++#+$$",
"$$+#+++oo.            .oo+++#+$$",
"$$+#+++oo.            .oo+++#+$$",
"$+#++++oo.            .oo++++#+$",
"$+#+++oo.              .oo+++#+$",
"$+#+++o..              ..o+++#+$",
"$+#+++o..              ..o+++#+$",
"$+#++ooo.              .ooo++#+$",
"+#+++ooo.              .ooo+++#+",
"+#++++oo.              .oo++++#+",
"+#++++oo.              .oo++++#+",
"+#++++.o.              .o.++++#+",
"+#++++.o.              .o.++++#+",
"+#++++oo.              .oo++++#+",
"+#+o+oo.                .oo+o+#+",
"$+#o+oo.                .oo+o#+$",
"$$o.+oo.                .oo+.o$$",
"$$$@oo..                ..oo@O$$",
"$$$@&&&&&&&&&&&&&&&&&&&&&&&&@O$$",
"$$$@%%&&&&&&&&&&&&&&&&&&&&%%@O$$",
"$$$@%%%%%%%%%%%%%%%%%%%%%%%%@O$$",
"$$$X@@%%%%%%%%%%%%%%%%%%%%@@XO$$",
"$$$XX@@@@@@@@@@@@@@@@@@@@@@XXO$$",
"$$$$OXXXXXXXXXXXXXXXXXXXXXXOO$$$",
"$$$$$$OOOOOOOOOOOOOOOOOOOOOO$$$$",
"$$$$$$$OOOOOOOOOOOOOOOOOOO$$$$$$"
};
