/* XPM */
static char *dfcf73336c2747eaaa6a5fdcc0313ccbDj7vbTr8Ipdh6Tvq[] = {
/* columns rows colors chars-per-pixel */
"32 32 14 1 ",
"  c #201729",
". c #331F29",
"X c #302639",
"o c #563A3F",
"O c #2C6A3A",
"+ c #79584F",
"@ c #505060",
"# c #94785C",
"$ c #36813E",
"% c #29973B",
"& c #3ABE41",
"* c #539444",
"= c #6ADD4B",
"- c #949EA8",
/* pixels */
"&&&&&&&&&&&&&&&&&&&&&&&&&&&&&&&&",
"&&$$&&&&&&&&&&&&&&&&&&=&&&$*&&&&",
"&&=$@@@@@@@@@@@@@@@@@@@@@@@@$&&&",
"=&*@------------------------@$&&",
"==*@-                      -@$&&",
"%==@- ++++++o+++++++++++o+@-@&&&",
"&%%@- ++####+##########+#+@-@&&&",
"&&&@- ++#####+#########+#+@-@=&&",
"&&&@- .+#####+#####+####+.@-@&&&",
"&&&@-  +o###########+###+ @-@&&&",
"&&&@-  +++##########+##++ @-@&&&",
"&&&@-  +++####+-+-+####++ @-@&&&",
"&&&@-  oo+++++-@o@-++++oo @-@&&&",
"&&&@-  oo+++++@X+X@++++oo @-@&&&",
"&&&@-  .o+++o+o@@@o++++o. @-@&&&",
"&&&@-   o+++o++ooo+++++o  @-@&&&",
"&&&@-   ooo.oooooooooooo  @-@&&&",
"&&&@-   .oo.ooooooooo.o.  @-@&&&",
"&&=@-    ..............   @-@&&&",
"=&=@-    ..............   @-@&&&",
"===@-                     @-@&&&",
"%=%@-                     @-@&&&",
"&%%@-                     @-@&&&",
"&&&@-                     @-@&&&",
"&&&@-                     @-@&&&",
"&&&@-                     @-@&&&",
"&=&@-                     @-@=&&",
"&&$@- @@@@@@@@@@@@@@@@@@@@@-@$&&",
"&&$@------------------------@$&&",
"&&&O@@@@@@@@@@@@@@@@@@@@@@@@$&&&",
"&&&&OO%%&&&&&&&&&&&&&&&&&&$$&&&&",
"&&&&&&&&&&&&&&&&&&&&&&&&&&&&&&&&"
};
