/* XPM */
static char *_0e0243c3d274f20b7edf80d6a2106663IflzQH97ri3lf01[] = {
/* columns rows colors chars-per-pixel */
"32 32 10 1 ",
"  c #1F712C",
". c #2B8E31",
"X c #29973B",
"o c #4FA638",
"O c #3ABE41",
"+ c #6ADD4B",
"@ c #707888",
"# c #949EA8",
"$ c #BBBFC3",
"% c #D5D5D5",
/* pixels */
"OOOOOOOOOOOOO######OOOOOOOOOOOOO",
"OOOOOOOOOOO##%%%%%%##O+OOOO+OOOO",
"OO+OOOOOOO#%%%%%%%%%%#X+OOOOOOOO",
"+O++O+OOO#%%%%%%%%%%%%#+O+OOOOOO",
"++++++OO#%%%%%%%%%%%%%$#O+OOOOOO",
"X++X+XOO#%%%%%%%%%%%$$$#OOOOOOOO",
"OXXXXOO#%%%%%%%%%%%$$$$$#OOOOOOO",
"OOOOOOO#%%%%%%%%%$$$$$$$#OOOO+OO",
"OOOOOOO#%%%##%%%$$$##$$$#OOOOOOO",
"OOOOOOO#%%#$$%%$$$#$$$$$#OOOOOOO",
"OOOOOO+#%%#$$%%$$$#$$$%$@OOOOOOO",
"OOOOOOXO#%%%%%$$$$$$$$%@+OO+OOOO",
"OOOOOOOO#%%%$$$$$$$$$%$@+OO+OOOO",
"OOOOOOOOO@$$$$$$$$$%%$@+XOOXOOOO",
"OOOO+OOOO@#$$$$$$$$$$#@XOOOOOOOO",
"OOOOOOOOOOO#@$$$$$$@#OOOOOOOOOOO",
"OOOOOOOOOOO@##@@@@##@OOOOOOOOOOO",
"OOOOOOOOOO@##########@OOOOOOOOOO",
"OO+OOOOOO@####$$$$####@OOOOOOOOO",
"+O++O+OOO@$$@$$$$$$@$$@OOOOOOOOO",
"++++++OO#$$#$%%$$$$$#$$#OOOOOOOO",
"X+X++XOO#$$#%%$$$$$%#$$#OOOOOOOO",
"OXXXXOO#$$#$%%$$$$$%$#$$#OOOOOOO",
"OOOOOOO#$$@#$%%$$$%$#@$$#OOOOOOO",
"OOOOOOOO#@X@#$$$$$$#@.@#OOOOOOOO",
"OOOOOOOOOOO@########@o.+OOOOOOOO",
"O+OOO+OOOOO@###@@###@o. ..OOO+OO",
"OOO+O++O+O.@$#@..@#$@ .....OOOOO",
"OOO++++++.@$$$@..@$$$@.....OOOOO",
"OOOX+X++X.@$$#@..@#$$@.....OOOOO",
"OOOOXXXXO.@@@@@..@@@@@.....OOOOO",
"OOOOOOOOOO................OOOOOO"
};
