/* XPM */
static char *dbb06dc8f12c4011fa9a49d32aac9015XtrTA2wEfqa2MKFv[] = {
/* columns rows colors chars-per-pixel */
"32 32 37 1 ",
"  c #0E0403",
". c #061503",
"X c #200909",
"o c #301410",
"O c #0E2709",
"+ c #333D11",
"@ c #55210B",
"# c #57221A",
"$ c #693913",
"% c #7A371A",
"& c #432E27",
"* c #5F3824",
"= c #424E00",
"- c #435228",
"; c #6A4834",
": c #65752B",
"> c #8D4F1E",
", c #A97016",
"< c #8E5120",
"1 c #975025",
"2 c #AA5427",
"3 c #8D7D78",
"4 c #6A8937",
"5 c #788A31",
"6 c #8AA000",
"7 c #A4BB00",
"8 c #889F2F",
"9 c #8E9E3E",
"0 c #C88F38",
"q c #B4CE00",
"w c #B88555",
"e c #A7B145",
"r c #D7B25D",
"t c #FFB773",
"y c #AA9B89",
"u c #BAAB97",
"i c #FFE5AA",
/* pixels */
"999999999999999999e9999999999999",
"999999999999999999ee999999999999",
"99999999999999<<<99ee99999999999",
"eeee99999999<<,0r<<ee99ee9999999",
"9eeee9eee99<,,666rr<e999ee999999",
"999ee99eee>=66qqq66=>9999ee99999",
"99999999ee=778888877=9994ee99999",
"999999999$=585588585=$9994e99999",
"999999999=55558885555=9999999999",
"eee999oooO55558888555Oooo9999999",
"9eee999oiO5:5858855:5Oio99eee999",
"99eee999oO5+5555555+5Oo9999eee99",
"9994e9999.:+5555555+:.999999eee9",
"999999999.::+55555+::.99999994e9",
"9999999999.:O55555O:.99999999999",
"999999999 *..:555:..XX9999999999",
"999999999 ** .555. * uX999999999",
"99999999 111 .:::. 11 uX99999999",
"99999999 11 ::...:: 1 yX99999999",
"eeee999 ### ::::::: # X999999999",
"9eeee99 tt  5:::::5 t Xee9999999",
"999ee9e wt  55:::55  3Xeee999999",
"9999999e    &&;;&&& 3X99eee99999",
"999999999e: ::::::: X99994e99999",
"9999999999 5::5 5::5 99999999999",
"9999999999 222 - %@@ 99999999999",
"eeee99999- @@% -     -9999999999",
"9eeee999--     --------999eeee99",
"999ee9999-------------99999eeee9",
"999999999999-------9999999999ee9",
"99999999999999999999999999999999",
"99999999999999999999999999999999"
};
