/* XPM */
static char *result[] = {
/* columns rows colors chars-per-pixel */
"32 32 37 1 ",
"  c #0E0403",
". c #061503",
"X c #200909",
"o c #301410",
"O c #0E2709",
"+ c #333D11",
"@ c #55210B",
"# c #57221A",
"$ c #693913",
"% c #7A371A",
"& c #432E27",
"* c #5F3824",
"= c #424E00",
"- c #435228",
"; c #6A4834",
": c #65752B",
"> c #8D4F1E",
", c #A97016",
"< c #8E5120",
"1 c #975025",
"2 c #AA5427",
"3 c #8D7D78",
"4 c #6A8937",
"5 c #788A31",
"6 c #8AA000",
"7 c #A4BB00",
"8 c #889F2F",
"9 c #8E9E3E",
"0 c #C88F38",
"q c #B4CE00",
"w c #B88555",
"e c #A7B145",
"r c #D7B25D",
"t c #FFB773",
"y c #AA9B89",
"u c #BAAB97",
"i c #FFE5AA",
/* pixels */
"99999999999999999999999999999999",
"99999999999999999ee9999999999999",
"eee999999999999999ee999999999999",
"9eee999ee99999<<<99ee99999999999",
"99eee999ee99<<,0r<<ee9eee9999999",
"9994e9999ee<,,666rr<e99eee999999",
"999999994e>=66qqq66=>999eee99999",
"9999999994=778888877=99994e99999",
"9ee999999$=585588585=$9999999999",
"99ee99999=55558885555=9999999999",
"999ee9oooO55558888555Oooo9999999",
"994ee99oiO5:5858855:5Oio99eeee99",
"9994e999oO5+5555555+5Oo9999eeee9",
"999999999.:+5555555+:.9999999ee9",
"999999999.::+55555+::.9999999999",
"999999999 .:O55555O:.X9999999999",
"999999999 *..:555:.. uX999999999",
"99999999 111 .555. 11 uX99999999",
"99999999 11 :.:::.: 1 yX99999999",
"eeee999 ### ::...:: # X999999999",
"9eeee9e tt  5:::::5 t X999999999",
"999ee99 wt  55:::55  3Xeee999999",
"99999999    &&;;&&& 3X9eeee99999",
"9999999994: ::::::: X9999ee99999",
"9999999999 5::5 5::5 99999999999",
"eee9999999 222 - %@@ 99999999999",
"9eee99999- @@% -     -9999eee999",
"99eee999--     --------9999eee99",
"9994e9999-------------999999eee9",
"999999999999-------99999999994e9",
"99999999999999999999999999999999",
"99999999999999999999999999999999"
};
