/* XPM */
static char *result[] = {
/* columns rows colors chars-per-pixel */
"32 32 37 1 ",
"  c #0E0403",
". c #061503",
"X c #200909",
"o c #301410",
"O c #0E2709",
"+ c #333D11",
"@ c #55210B",
"# c #57221A",
"$ c #693913",
"% c #7A371A",
"& c #432E27",
"* c #5F3824",
"= c #424E00",
"- c #435228",
"; c #6A4834",
": c #65752B",
"> c #8D4F1E",
", c #A97016",
"< c #8E5120",
"1 c #975025",
"2 c #AA5427",
"3 c #8D7D78",
"4 c #6A8937",
"5 c #788A31",
"6 c #8AA000",
"7 c #A4BB00",
"8 c #889F2F",
"9 c #8E9E3E",
"0 c #C88F38",
"q c #B4CE00",
"w c #B88555",
"e c #A7B145",
"r c #D7B25D",
"t c #FFB773",
"y c #AA9B89",
"u c #BAAB97",
"i c #FFE5AA",
/* pixels */
"99e99999999999999999999999999999",
"99ee9999999999999999999999999999",
"999ee999999999<<<999999999999999",
"999ee99ee999<<,0r<<e999999999999",
"9944e999ee9<,,666rr<e9eee9999999",
"9994e9999e>=66qqq66=>99eee999999",
"999999994e=778888877=999eee99999",
"999999999$=585588585=$9994e99999",
"9ee999999=55558885555=9999999999",
"99ee99oooO55558888555Oooo99ee999",
"999ee99oiO5:5858855:5Oio9999ee99",
"994ee999oO5+5555555+5Oo999999ee9",
"9994e9999.:+5555555+:.9999994ee9",
"999999999.::+55555+::.99999994e9",
"9999999999.:O55555O:.99999999999",
"999999999 *..:555:..XX9999999999",
"999999999 ** .555. * uX999999999",
"9ee99999 111 .:::. 11 uX99999999",
"99ee9999 11 ::...:: 1 yX99999999",
"999ee99 ### ::::::: # Xee9999999",
"994ee99 tt  5:::::5 t X9ee999999",
"9994e99 wt  55:::55  3X99ee99999",
"99999999    &&;;&&& 3X994ee99999",
"99e9999994: ::::::: X99994e99999",
"99ee999999 5::5 5::5 9999999e999",
"999ee99999 222 - %@@ 9999999ee99",
"999ee9999- @@% -     -9999999ee9",
"9944e999--     --------999999ee9",
"9994e9999-------------99999944e9",
"999999999999-------99999999994e9",
"99999999999999999999999999999999",
"99999999999999999999999999999999"
};
