/* XPM */
static char *result[] = {
/* columns rows colors chars-per-pixel */
"32 32 37 1 ",
"  c #0E0403",
". c #061503",
"X c #200909",
"o c #301410",
"O c #0E2709",
"+ c #333D11",
"@ c #55210B",
"# c #57221A",
"$ c #693913",
"% c #7A371A",
"& c #432E27",
"* c #5F3824",
"= c #424E00",
"- c #435228",
"; c #6A4834",
": c #65752B",
"> c #8D4F1E",
", c #A97016",
"< c #8E5120",
"1 c #975025",
"2 c #AA5427",
"3 c #8D7D78",
"4 c #6A8937",
"5 c #788A31",
"6 c #8AA000",
"7 c #A4BB00",
"8 c #889F2F",
"9 c #8E9E3E",
"0 c #C88F38",
"q c #B4CE00",
"w c #B88555",
"e c #A7B145",
"r c #D7B25D",
"t c #FFB773",
"y c #AA9B89",
"u c #BAAB97",
"i c #FFE5AA",
/* pixels */
"99999999999999999999999999999999",
"9ee99999999999999999999999999999",
"99ee999999999999eee9999999999999",
"999ee999999999<<<eee999ee9999999",
"994ee9eee999<<,0r<<ee999ee999999",
"9994e99eee9<,,666rr<e9999ee99999",
"99999999ee>=66qqq66=>9994ee99999",
"9999999994=778888877=99994e99999",
"999999999$=585588585=$999999e999",
"eee999999=55558885555=999999ee99",
"9eee99oooO55558888555Oooo9999ee9",
"99eee99oiO5:5858855:5Oio99999ee9",
"9994e999oO5+5555555+5Oo9999944e9",
"999999999.:+5555555+:.99999994e9",
"999999999.::+55555+::.9999999999",
"999999999 .:O55555O:.X9999999999",
"99e999999 *..:555:.. uX999999999",
"99ee9999 111 .555. 11 uX99999999",
"999ee999 11 :.:::.: 1 yXe9999999",
"999ee99 ### ::...:: # X9ee999999",
"9944e99 tt  5:::::5 t X99ee99999",
"9994e99 wt  55:::55  3X99ee99999",
"99999999    &&;;&&& 3X9944e99999",
"9999999994: ::::::: X99994e99999",
"9ee9999999 5::5 5::5 99999999999",
"99ee999999 222 - %@@ 999999ee999",
"999ee9999- @@% -     -999999ee99",
"994ee999--     --------999999ee9",
"9994e9999-------------9999994ee9",
"999999999999-------99999999994e9",
"99999999999999999999999999999999",
"99999999999999999999999999999999"
};
