/* XPM */
static char *result[] = {
/* columns rows colors chars-per-pixel */
"32 32 46 1 ",
"  c black",
". c #0E0403",
"X c #190C05",
"o c #061503",
"O c #061800",
"+ c gray9",
"@ c #200909",
"# c #301410",
"$ c #0E2709",
"% c #0C3000",
"& c #1C3000",
"* c #333D11",
"= c #431F0C",
"- c #55210B",
"; c #57221A",
": c #693913",
"> c #7A371A",
", c #5F3824",
"< c #424E00",
"1 c #435228",
"2 c #65752B",
"3 c #253B60",
"4 c #844100",
"5 c #8D4F1E",
"6 c #A97016",
"7 c #975025",
"8 c #AA5427",
"9 c #B67147",
"0 c #8D7D78",
"q c #6A8937",
"w c #788A31",
"e c #8AA000",
"r c #A4BB00",
"t c #889F2F",
"y c #8E9E3E",
"u c #C88F38",
"i c #B88555",
"p c #A7B145",
"a c #D7B25D",
"s c #FFB773",
"d c #AA9B89",
"f c #BAAB97",
"g c #AAAAAE",
"h c #C7B8A6",
"j c #FFE5AA",
"k c white",
/* pixels */
"yypyyyyyyyyyyyyyyyyyyyyyyyyyyyyy",
"yyppyyyyyyyyyyyyyyyyyyyyyyyyyyyy",
"yyyppyyyyyyyyyyyyyyyyyyyyyyyyyyy",
"yyyppyyppyyyy****pppyyyyyyyyyyyy",
"yyqqpyyyppy**tttw<<%pypppyyyyyyy",
"yyyqpyyyy**wtttwrre<Oyypppyyyyyy",
"yyyyyyyy*wtttwwre46ua5yypppyyyyy",
"yyyyyyy*wtwwtwrea6u66u::yqpyyyyy",
"yppyyyy$wwwwwwe4u666666:yyyyyyyy",
"yyppyyy$wwwwwr<u666iX6:yyyyppyyy",
"yyyppy$w#####e<666XXX:yyyyyyppyy",
"yyqppy$w2#jsi#:66ig3Xyyyyyyyyppy",
"yyyqpyow22##si:66sk+iXyyyyyyqppy",
"yyyyyyowwo22#s:6ussssXyyyyyyyqpy",
"yyyyyyowoyo22os:6uss=yyyyyyyyyyy",
"yyyyyyo2oyyoooX:66XX@yyyyyyyyyyy",
"yyyyyyo2oyyyy ,9 .@fh@yyyyyyyyyy",
"yppyyyyoyyyy. 77 @fdf@yyyyyyyyyy",
"yyppyyyypyyy ,7  @ddh@yyyyyyyyyy",
"yyyppyyyppyy 777;@dhh@yppyyyyyyy",
"yyqppyyyyppy. 77;@dd0@yyppyyyyyy",
"yyyqpyyyyppy.*   @00@yyyyppyyyyy",
"yyyyyyyyqqpy.2****@@yyyyqppyyyyy",
"yypyyyyyyqpy.22222.yyyyyyqpyyyyy",
"yyppyyyyyyyyy.....pyyyyyyyyypyyy",
"yyyppyyyyyyp1.>88.&pyyyyyyyyppyy",
"yyyppyyyy1111.-->>.111yyyyyyyppy",
"yyqqpyyy11111......1111yyyyyyppy",
"yyyqpyyyy1111111111111yyyyyyqqpy",
"yyyyyyyyyyyy1111111yyyyyyyyyyqpy",
"yyyyyyyyyyyyyyyyyyyyyyyyyyyyyyyy",
"yyyyyyyyyyyyyyyyyyyyyyyyyyyyyyyy"
};
