/* XPM */
static char *result[] = {
/* columns rows colors chars-per-pixel */
"32 32 46 1 ",
"  c black",
". c #0E0403",
"X c #190C05",
"o c #061503",
"O c #061800",
"+ c gray9",
"@ c #200909",
"# c #301410",
"$ c #0E2709",
"% c #0C3000",
"& c #1C3000",
"* c #333D11",
"= c #431F0C",
"- c #55210B",
"; c #57221A",
": c #693913",
"> c #7A371A",
", c #5F3824",
"< c #424E00",
"1 c #435228",
"2 c #65752B",
"3 c #253B60",
"4 c #844100",
"5 c #8D4F1E",
"6 c #A97016",
"7 c #975025",
"8 c #AA5427",
"9 c #B67147",
"0 c #8D7D78",
"q c #6A8937",
"w c #788A31",
"e c #8AA000",
"r c #A4BB00",
"t c #889F2F",
"y c #8E9E3E",
"u c #C88F38",
"i c #B88555",
"p c #A7B145",
"a c #D7B25D",
"s c #FFB773",
"d c #AA9B89",
"f c #BAAB97",
"g c #AAAAAE",
"h c #C7B8A6",
"j c #FFE5AA",
"k c white",
/* pixels */
"yyyyyyyyyyyyyyyyyyyyyyyyyyyyyyyy",
"yyyyyyyyyyyyyyyyyppyyyyyyyyyyyyy",
"pppyyyyyyyyyyyyyyyppyyyyyyyyyyyy",
"ypppyyyppyyyyyyyyyyppyyyyyyyyyyy",
"yypppyyyppyyy****yqppypppyyyyyyy",
"yyyqpyyyypp**tttw<<%pyypppyyyyyy",
"yyyyyyyyq**wtttwrre<Oyyypppyyyyy",
"yyyyyyyy*wtttwwre46ua5yyyqpyyyyy",
"yppyyyy*wtwwtwrea6u66u:yyyyyyyyy",
"yyppyyy$wwwwwwe4u66666:yyyyyyyyy",
"yyyppy$wwwwwwr<u666iX6:yyyyyyyyy",
"yyqppy$w#####e<666XXX:yyyyppppyy",
"yyyqpy$w2#jsi#:66ig3Xyyyyyyppppy",
"yyyyyoww22##si:66sk+iXyyyyyyyppy",
"yyyyyowww222#s:6ussssXyyyyyyyyyy",
"yyyyyowwooo22os6usss=yyyyyyyyyyy",
"yyyyyowoyyyooo 6 .XX@yyyyyyyyyyy",
"yyyyyooyyyyyo ,9 <@fh@yyyyyyyyyy",
"yyyyyyyyyyyy. 77 @fdf@yyyyyyyyyy",
"ppppyyyyyyyy ,7  @ddh@yyyyyyyyyy",
"yppppypppyyy 777;@dhh@yyyyyyyyyy",
"yyyppyypppyy. 77;@dd0@ppppyyyyyy",
"yyyyyyyypppy.2   @00@yyppppyyyyy",
"yyyyyyyyyqpy.22222@@yyyyyppyyyyy",
"yyyyyyyyyyyyy.....yyyyyyyyyyyyyy",
"pppyyyyyyyyp1.>88.&yyyyyyyyyyyyy",
"ypppyyyyy1111.-->>.111yyyypppyyy",
"yypppyyy11111......1111yyyypppyy",
"yyyqpyyyy1111111111111yyyyyypppy",
"yyyyyyyyyyyy1111111yyyyyyyyyyqpy",
"yyyyyyyyyyyyyyyyyyyyyyyyyyyyyyyy",
"yyyyyyyyyyyyyyyyyyyyyyyyyyyyyyyy"
};
