/* XPM */
static char *result[] = {
/* columns rows colors chars-per-pixel */
"32 32 45 1 ",
"  c #0E0403",
". c #190C05",
"X c #061503",
"o c gray9",
"O c #200909",
"+ c #301410",
"@ c #0E2709",
"# c #333D11",
"$ c #431F0C",
"% c #751B1B",
"& c #55210B",
"* c #57221A",
"= c #693913",
"- c #7A371A",
"; c #432E27",
": c #5F3824",
"> c #68481C",
", c #435228",
"< c #6A4834",
"1 c #65752B",
"2 c #253B60",
"3 c #A97016",
"4 c #975025",
"5 c #AA5427",
"6 c #B67147",
"7 c #8D7D78",
"8 c #6A8937",
"9 c #788A31",
"0 c #8AA000",
"q c #A4BB00",
"w c #889F2F",
"e c #8E9E3E",
"r c #C88F38",
"t c #B68555",
"y c #B88555",
"u c #A7B145",
"i c #9A907A",
"p c #FFB773",
"a c #AA9B89",
"s c #BAAB97",
"d c #AAAAAE",
"f c #C4B697",
"g c #C7B8A6",
"h c #FFE5AA",
"j c white",
/* pixels */
"eeeeeeeeeeeeeeeeeeueeeeeeeeeeeee",
"eeeeeeeeeeeeeeeeeeuueeeeeeeeeeee",
"eeeeeeeeeeeeeeeeeeeuueeeeeeeeeee",
"uuuueeeeeeeeee###eeuueeuueeeeeee",
"euuuueuuueee##www##8ueeeuueeeeee",
"eeeuueeuuue#19www91#ueeeeuueeeee",
"eeeeeeeeuu@9wqqqqqw9@eee8uueeeee",
"eeeeeeeee8Xqq0>>>0qqXeeee8ueeeee",
"eeeeeeeeeX00>333rr>00Xeeeeeeeeee",
"uuueeeeeeX>3r333333r>Xeeeeeeeeee",
"euuuee++++3r33yy33333++++euuueee",
"eeuuuee+hy=3...y...3=yh+eeeuuuee",
"eee8ueee+p=3d2yyt2d3=p+eeeeeuuue",
"eeeeeeeee+3yjopppojy3+eeeeeee8ue",
"eeeeeeeee+3rpppppppr3+eeeeeeeeee",
"eeeeeeeeee 3.ppppp.3 eeeeeeeeeee",
"eeeeeeeee ::1.$$$.1:: eeeeeeeeee",
"eeeeeeeeOOOOOO9999966 eeeeeeeeee",
"eeeeeeeOgsaaaaO9999 64 eeeeeeeee",
"uuuueeeOsaggaaO9999 44 eeeeeeeee",
"euuuueeO7gggg7O<<<; ** uueeeeeee",
"eeeuueuuOggggO111% pp euuueeeeee",
"eeeeeeeuO7aa7O%%%1 py eeuuueeeee",
"eeeeeeeeeO77O#####1  eeee8ueeeee",
"eeeeeeeeeeOOffi iff eeeeeeeeeeee",
"eeeeeeeeeee 555 555 eeeeeeeeeeee",
"uuuueeeee,, &&- -&& ,,eeeeeeeeee",
"euuuueee,,,         ,,,eeeuuuuee",
"eeeuueeee,,,,,,,,,,,,,eeeeeuuuue",
"eeeeeeeeeeee,,,,,,,eeeeeeeeeeuue",
"eeeeeeeeeeeeeeeeeeeeeeeeeeeeeeee",
"eeeeeeeeeeeeeeeeeeeeeeeeeeeeeeee"
};
