/* XPM */
static char *result[] = {
/* columns rows colors chars-per-pixel */
"32 32 43 1 ",
"  c #0E0403",
". c #190C05",
"X c #061503",
"o c gray9",
"O c #200909",
"+ c #301410",
"@ c #0E2709",
"# c #333D11",
"$ c #431F0C",
"% c #751B1B",
"& c #55210B",
"* c #57221A",
"= c #693913",
"- c #7A371A",
"; c #68481C",
": c #435228",
"> c #6A4834",
", c #65752B",
"< c #253B60",
"1 c #A97016",
"2 c #975025",
"3 c #AA5427",
"4 c #B67147",
"5 c #8D7D78",
"6 c #6A8937",
"7 c #788A31",
"8 c #8AA000",
"9 c #A4BB00",
"0 c #889F2F",
"q c #8E9E3E",
"w c #C88F38",
"e c #B68555",
"r c #B88555",
"t c #A7B145",
"y c #9A907A",
"u c #FFB773",
"i c #AA9B89",
"p c #BAAB97",
"a c #AAAAAE",
"s c #C4B697",
"d c #C7B8A6",
"f c #FFE5AA",
"g c white",
/* pixels */
"qqqqqqqqqqqqqqqqqqqqqqqqqqqqqqqq",
"qttqqqqqqqqqqqqqqqqqqqqqqqqqqqqq",
"qqttqqqqqqqqqqqqtttqqqqqqqqqqqqq",
"qqqttqqqqqqqqq###tttqqqttqqqqqqq",
"qq6ttqtttqqq##000##ttqqqttqqqqqq",
"qqq6tqqtttq#,70007,#tqqqqttqqqqq",
"qqqqqqqqtt@709999907@qqq6ttqqqqq",
"qqqqqqqqq6X998;;;899Xqqqq6tqqqqq",
"qqqqqqqqqX88;111ww;88Xqqqqqqtqqq",
"tttqqqqqqX;1w111111w;Xqqqqqqttqq",
"qtttqq++++1w11rr11111++++qqqqttq",
"qqtttqq+fr=1...r...1=rf+qqqqqttq",
"qqq6tqqq+u=1a<rre<a1=u+qqqqq66tq",
"qqqqqqqqq+1rgouuuogr1+qqqqqqq6tq",
"qqqqqqqqq+1wuuuuuuuw1+qqqqqqqqqq",
"qqqqqqqqq  1.uuuuu.1  qqqqqqqqqq",
"qqtqqqqqOOOOOO$$$.,44 qqqqqqqqqq",
"qqttqqqOdpiiiiO7777 42 qqqqqqqqq",
"qqqttqqOpiddiiO7777 22 qtqqqqqqq",
"qqqttqqO5dddd5O7777 ** qttqqqqqq",
"qq66tqqqOddddO>>>> uu qqqttqqqqq",
"qqq6tqqqO5ii5O,,,% ur qqqttqqqqq",
"qqqqqqqq6O55O,%%%,,  qqq66tqqqqq",
"qqqqqqqqq6OO,#####, qqqqq6tqqqqq",
"qttqqqqqqqq ssy yss qqqqqqqqqqqq",
"qqttqqqqqqq 333 333 tqqqqqqttqqq",
"qqqttqqqq:: &&- -&& ::qqqqqqttqq",
"qq6ttqqq:::         :::qqqqqqttq",
"qqq6tqqqq:::::::::::::qqqqqq6ttq",
"qqqqqqqqqqqq:::::::qqqqqqqqqq6tq",
"qqqqqqqqqqqqqqqqqqqqqqqqqqqqqqqq",
"qqqqqqqqqqqqqqqqqqqqqqqqqqqqqqqq"
};
