/* XPM */
static char *result[] = {
/* columns rows colors chars-per-pixel */
"32 32 43 1 ",
"  c #0E0403",
". c #190C05",
"X c #061503",
"o c gray9",
"O c #200909",
"+ c #301410",
"@ c #0E2709",
"# c #333D11",
"$ c #751B1B",
"% c #55210B",
"& c #57221A",
"* c #693913",
"= c #7A371A",
"- c #432E27",
"; c #68481C",
": c #435228",
"> c #6A4834",
", c #65752B",
"< c #253B60",
"1 c #A97016",
"2 c #975025",
"3 c #AA5427",
"4 c #B67147",
"5 c #8D7D78",
"6 c #6A8937",
"7 c #788A31",
"8 c #8AA000",
"9 c #A4BB00",
"0 c #889F2F",
"q c #8E9E3E",
"w c #C88F38",
"e c #B68555",
"r c #B88555",
"t c #A7B145",
"y c #9A907A",
"u c #FFB773",
"i c #AA9B89",
"p c #BAAB97",
"a c #AAAAAE",
"s c #C4B697",
"d c #C7B8A6",
"f c #FFE5AA",
"g c white",
/* pixels */
"qqqqqqqqqqqqqqqqqqqqqqqqqqqqqqqq",
"qqqqqqqqqqqqqqqqqttqqqqqqqqqqqqq",
"qqqqqqqqqqqqqqqqqqttqqqqtqqqqqqq",
"ttttqqqqqqqqqqqqqqqttqqqttqqqqqq",
"qttttqqqqqqqqq###q6ttqqqqttqqqqq",
"qqqttqttttqq##000##6tqqqqttqqqqq",
"qqqqqqqtttt#,70007,#qqqq66tqqqqq",
"qqqqqqqqqt@709999907@qqqq6tqqqqq",
"qqqqqqqqqqX998;;;899Xqqqqqqqqqqq",
"qqqqqqqqqX88;111ww;88Xqqqqqttqqq",
"ttttqqqqqX;1w111111w;Xqqqqqqttqq",
"qttttq++++1w11rr11111++++qqqqttq",
"qqqttqq+fr*1...r...1*rf+qqqq6ttq",
"qqqqqqqq+u*1a<rre<a1*u+qqqqqq6tq",
"qqqqqqqqq+1rgouuuogr1+qqqqqqqqqq",
"qqqqqqqqq+1wuuuuuuuw1+qqqqqqqqqq",
"qqqqqqqqq  1.uuuuu.1  qqqqqqqqqq",
"qttqqqqqOOOOOO7777744 qqqqqqqqqq",
"qqttqqqOdpiiiiO7777 42 qqqqqqqqq",
"qqqttqqOpiddiiO7777 22 ttqqqqqqq",
"qq6ttqtO5dddd5O>>>- && qttqqqqqq",
"qqq6tqqtOddddO,,,$ uu qqqttqqqqq",
"qqqqqqqqO5ii5O$$$, ur qq6ttqqqqq",
"qqqqqqqqqO55O#####,  qqqq6tqqqqq",
"qqqqqqqqqqOOssy yss qqqqqqqqqqqq",
"tttqqqqqqqq 333 333 qqqqqqqqqqqq",
"qtttqqqqq:: %%= =%% ::qqqqtttqqq",
"qqtttqqq:::         :::qqqqtttqq",
"qqq6tqqqq:::::::::::::qqqqqqtttq",
"qqqqqqqqqqqq:::::::qqqqqqqqqq6tq",
"qqqqqqqqqqqqqqqqqqqqqqqqqqqqqqqq",
"qqqqqqqqqqqqqqqqqqqqqqqqqqqqqqqq"
};
