/* XPM */
static char *result[] = {
/* columns rows colors chars-per-pixel */
"32 32 39 1 ",
"  c #0E0403",
". c #190C05",
"X c #061503",
"o c #200909",
"O c #301410",
"+ c #0E2709",
"@ c #333D11",
"# c #431F0C",
"$ c #751B1B",
"% c #55210B",
"& c #57221A",
"* c #693913",
"= c #7A371A",
"- c #68481C",
"; c #435228",
": c #6A4834",
"> c #65752B",
", c #A97016",
"< c #975025",
"1 c #AA5427",
"2 c #B67147",
"3 c #8D7D78",
"4 c #6A8937",
"5 c #788A31",
"6 c #8AA000",
"7 c #A4BB00",
"8 c #889F2F",
"9 c #8E9E3E",
"0 c #C88F38",
"q c #B68555",
"w c #B88555",
"e c #A7B145",
"r c #9A907A",
"t c #FFB773",
"y c #AA9B89",
"u c #BAAB97",
"i c #C4B697",
"p c #C7B8A6",
"a c #FFE5AA",
/* pixels */
"99999999999999999999999999999999",
"99999999999999999ee9999999999999",
"eee999999999999999ee999999999999",
"9eee999ee99999@@@99ee99999999999",
"99eee999ee99@@888@@ee9eee9999999",
"9994e9999ee@>58885>@e99eee999999",
"999999994e+587777785+999eee99999",
"9999999994X776---677X99994e99999",
"9ee999999X66-,,,00-66X9999999999",
"99ee99999X-,0,,,,,,0-X9999999999",
"999ee9OOOO,0,,ww,,,,,OOOO9999999",
"994ee99Oaw*,wwwwwww,*waO99eeee99",
"9994e999Ot*,wwwwqww,*tO9999eeee9",
"999999999O,w..ttt..w,O9999999ee9",
"999999999O,0ttttttt0,O9999999999",
"999999999  ,.ttttt.,  9999999999",
"99999999oooooo###.>22 9999999999",
"9999999opuyyyyo5555 2< 999999999",
"9999999ouyppyyo5555 << 999999999",
"eeee999o3pppp3o5555 && 999999999",
"9eeee9eeoppppo:::: tt 9999999999",
"999ee99eo3yy3o>>>$ tw eeee999999",
"99999999eo33o>$$$>>  99eeee99999",
"9999999994oo>@@@@@> 99999ee99999",
"99999999999 iir rii 999999999999",
"eee99999999 111 111 999999999999",
"9eee99999;; %%= =%% ;;9999eee999",
"99eee999;;;         ;;;9999eee99",
"9994e9999;;;;;;;;;;;;;999999eee9",
"999999999999;;;;;;;99999999994e9",
"99999999999999999999999999999999",
"99999999999999999999999999999999"
};
