/* XPM */
static char *_e5844ad038641abd9a56ca2107f81ae7wM2MFGBVN1iULfE[] = {
/* columns rows colors chars-per-pixel */
"32 32 3 1 ",
"  c #29973B",
". c #3ABE41",
"X c #6ADD4B",
/* pixels */
"................................",
"......................X....X....",
"..X.........X......... X........",
"X.XX.X......X..........X.X......",
"XXXXXX...... .......... .X......",
" XX X ..X........X..............",
".    ...........X ..............",
"................X............X..",
".........X...... ...............",
"........X ......................",
"......X.X............X..........",
"...... . ..........X.XX.X..X....",
"...........X.......XXXXXX..X....",
"................... X XX .. ....",
"....X...............    ........",
"................................",
"................................",
"................................",
"..X..............X..............",
"X.XX.X...........X..............",
"XXXXXX....X...... ..............",
" X XX ..X.XX.X..................",
".    ...XXXXXX..................",
"........ XX X ..................",
".........    ..........X........",
".....................X.X........",
".X...X.......X.......X. .....X..",
"...X.XX.X...X ....... ..........",
"...XXXXXX.X.X...................",
"... X XX ... ...................",
"....    ........................",
"................................"
};
