/* XPM */
static char *result[] = {
/* columns rows colors chars-per-pixel */
"32 32 3 1 ",
"  c #6A8937",
". c #8E9E3E",
"X c #A7B145",
/* pixels */
"................................",
".................XX.............",
"..................XX....X.......",
"XXXX...............XX...XX......",
".XXXX............. XX....XX.....",
"...XX.XXXX......... X....XX.....",
".......XXXX.............  X.....",
".........XX.......X...... X.....",
"..................XX............",
"...................XX......XX...",
"XXXX......XXX......XX.......XX..",
".XXXX......XXX....  X........XX.",
"...XX.......XXX.... X....... XX.",
"............. X.............. X.",
"................................",
"................................",
"..................X.............",
".XX...............XX............",
"..XX...............XX...........",
"...XX..............XX..XX.......",
".. XX.XXX.........  X...XX......",
"... X..XXX......... X....XX.....",
"........XXX............. XX.....",
"......... X.............. X.....",
".................XX.............",
"XXX...............XX............",
".XXX...............XX.....XXX...",
"..XXX.....XXXX.... XX......XXX..",
"... X......XXXX.... X.......XXX.",
".............XX.............. X.",
"................................",
"................................"
};
