/* XPM */
static char *result[] = {
/* columns rows colors chars-per-pixel */
"32 32 3 1 ",
"  c #6A8937",
". c #8E9E3E",
"X c #A7B145",
/* pixels */
"................................",
".................XX.............",
"XXX...............XX............",
".XXX...XX..........XX...........",
"..XXX...XX........ XX.XXX.......",
"... X....XX........ X..XXX......",
"........ XX.............XXX.....",
"......... X.............. X.....",
".XX.........X...................",
"..XX........XX..XXX.............",
"...XX........XX..XXX............",
".. XX........XX...XXX.....XXXX..",
"... X.......  X.... X......XXXX.",
"............. X..............XX.",
"................................",
"................................",
"................................",
"................................",
"................................",
"XXXX............XXXX............",
".XXXX.XXX........XXXX...........",
"...XX..XXX.........XX.XXXX......",
"........XXX............XXXX.....",
"......... X..............XX.....",
"................................",
"XXX........XX...................",
".XXX........XX..XXXX......XXX...",
"..XXX........XX..XXXX......XXX..",
"... X....... XX....XX.......XXX.",
"............. X.............. X.",
"................................",
"................................"
};
