/* XPM */
static char *result[] = {
/* columns rows colors chars-per-pixel */
"32 32 3 1 ",
"  c #6A8937",
". c #8E9E3E",
"X c #A7B145",
/* pixels */
"................................",
".XX.............................",
"..XX....X.......................",
"...XX...XX......XXXX............",
".. XX....XX......XXXX.XXX.......",
"... X....XX........XX..XXX......",
"........  X.............XXX.....",
"..X...... X.............. X.....",
"..XX............................",
"...XX......XX...XXX........XX...",
"...XX.......XX...XXX........XX..",
"..  X........XX...XXX........XX.",
"... X....... XX.... X....... XX.",
"............. X.............. X.",
"................................",
"................................",
"................................",
"................................",
"XXX.............................",
".XXX...XX.......XXXX............",
"..XXX...XX.......XXXX...........",
"... X....XX........XX.XXXX......",
"........ XX............XXXX.....",
"......... X..............XX.....",
".XX.........X...................",
"..XX........XX..................",
"...XX........XX.XXXX......XXX...",
".. XX........XX..XXXX......XXX..",
"... X.......  X....XX.......XXX.",
"............. X.............. X.",
"................................",
"................................"
};
