/* XPM */
static char *result[] = {
/* columns rows colors chars-per-pixel */
"32 32 3 1 ",
"  c #6A8937",
". c #8E9E3E",
"X c #A7B145",
/* pixels */
"..X.............................",
"..XX............................",
"...XX...........................",
"...XX..XX.......XXXX............",
"..  X...XX.......XXXX.XXX.......",
"... X....XX........XX..XXX......",
"........ XX.............XXX.....",
"......... X.............. X.....",
".XX.............................",
"..XX............XXX........XX...",
"...XX.....XXX....XXX........XX..",
".. XX......XXX....XXX........XX.",
"... X.......XXX.... X....... XX.",
"............. X.............. X.",
"................................",
"................................",
"................................",
".XX.............................",
"..XX....X.......XXX.............",
"...XX...XX.......XXX...XX.......",
".. XX....XX.......XXX...XX......",
"... X....XX........ X....XX.....",
"........  X............. XX.....",
"..X...... X.............. X.....",
"..XX.............XX.........X...",
"...XX......XX.....XX........XX..",
"...XX.......XX.....XX........XX.",
"..  X........XX... XX........XX.",
"... X....... XX.... X.......  X.",
"............. X.............. X.",
"................................",
"................................"
};
