/* XPM */
static char *result[] = {
/* columns rows colors chars-per-pixel */
"32 32 3 1 ",
"  c #6A8937",
". c #8E9E3E",
"X c #A7B145",
/* pixels */
"..................X.............",
"..................XX............",
"...................XX...........",
"XXXX...............XX..XX.......",
".XXXX.XXX.........  X...XX......",
"...XX..XXX......... X....XX.....",
"........XXX............. XX.....",
"......... X.............. X.....",
".................XX.............",
"XXX........XX.....XX............",
".XXX........XX.....XX.....XXX...",
"..XXX........XX... XX......XXX..",
"... X....... XX.... X.......XXX.",
"............. X.............. X.",
"................................",
"................................",
"................................",
".................XX.............",
"..................XX............",
"XXXX...............XX...........",
".XXXX............. XX.XXX.......",
"...XX.XXXX......... X..XXX......",
".......XXXX.............XXX.....",
".........XX.............. X.....",
"................................",
"................XXX.............",
"XXXX......XXX....XXX............",
".XXXX......XXX....XXX.....XXXX..",
"...XX.......XXX.... X......XXXX.",
"............. X..............XX.",
"................................",
"................................"
};
