/* XPM */
static char *result[] = {
/* columns rows colors chars-per-pixel */
"32 32 3 1 ",
"  c #6A8937",
". c #8E9E3E",
"X c #A7B145",
/* pixels */
"................................",
".XX.............................",
"..XX............XXX.............",
"...XX............XXX...XX.......",
".. XX.XXX.........XXX...XX......",
"... X..XXX......... X....XX.....",
"........XXX............. XX.....",
"......... X.............. X.....",
".................XX.........X...",
"XXX...............XX........XX..",
".XXX...............XX........XX.",
"..XXX.....XXXX.... XX........XX.",
"... X......XXXX.... X.......  X.",
".............XX.............. X.",
"................................",
"................................",
"..X.............................",
"..XX.............XX.............",
"...XX.............XX....X.......",
"...XX..XX..........XX...XX......",
"..  X...XX........ XX....XX.....",
"... X....XX........ X....XX.....",
"........ XX.............  X.....",
"......... X.......X...... X.....",
".XX...............XX............",
"..XX...............XX......XX...",
"...XX.....XXX......XX.......XX..",
".. XX......XXX....  X........XX.",
"... X.......XXX.... X....... XX.",
"............. X.............. X.",
"................................",
"................................"
};
