/* XPM */
static char *_6a4b75cec2c4d419a69660c9a3d7eb4b68NSqYxm0zUAN4o[] = {
/* columns rows colors chars-per-pixel */
"32 32 47 1 ",
"  c #0E0403",
". c #190C05",
"X c #061503",
"o c #061800",
"O c gray9",
"+ c #200909",
"@ c #301410",
"# c #0E2709",
"$ c #0C3000",
"% c #1C3000",
"& c #333D11",
"* c #431F0C",
"= c #751B1B",
"- c #55210B",
"; c #57221A",
": c #693913",
"> c #7A371A",
", c #5F3824",
"< c #424E00",
"1 c #435228",
"2 c #6A4834",
"3 c #65752B",
"4 c #253B60",
"5 c #6A6563",
"6 c #746B68",
"7 c #844100",
"8 c #8D4F1E",
"9 c #A97016",
"0 c #975025",
"q c #AA5427",
"w c #8D7D78",
"e c #6A8937",
"r c #788A31",
"t c #8AA000",
"y c #A4BB00",
"u c #889F2F",
"i c #8E9E3E",
"p c #C88F38",
"a c #B88555",
"s c #A7B145",
"d c #D7B25D",
"f c #FFB773",
"g c #AA9B89",
"h c #BAAB97",
"j c #AAAAAE",
"k c #FFE5AA",
"l c white",
/* pixels */
"iiiiiiiiiiiiiiiiiiiiiiiiiiiiiiii",
"iiiiiiiiiiiiiiiiissiiiiiiiiiiiii",
"sssiiiiiiiiiiiiiiissiiiiiiiiiiii",
"isssiiissiiiiiiiiiissiiiiiiiiiii",
"iisssiiissiiii&&&&essisssiiiiiii",
"iiiesiiiiss$<<ruuu&&siisssiiiiii",
"iiiiiiiieso<tyyruuur&&iisssiiiii",
"iiiiiiiii8dp97tyrruuur&iiesiiiii",
"issiiiii:p99p9dtyrurrur&iiiiiiii",
"iissiiii:99999p7trrrrrr#iiiiiiii",
"iiissiii:9.a999p<yrrrrrr#iiiiiii",
"iiessiiii:...999<t@@@@@r#issssii",
"iiiesiiiii.4ja99:@afk@3r#iissssi",
"iiiiiiiii.aOlf99:af@@33rrXiiissi",
"iiiiiiiii.ffffp9:f@333rrrXiiiiii",
"iiiiiiiiii*fffp9fX33XXXrrXiiiiii",
"iiiiiiiii++.. :9 XXXiiiXrXiiiiii",
"iiiiiiii+h66 3 0, iiiiiiXXiiiiii",
"iiiiiii+h655 r 00  iiiiiiiiiiiii",
"ssssiii+g6 +rrr 0, siiiiiiiiiiii",
"issssis+g f 222 00 ssiiiiiiiiiii",
"iiissii+w f 3=3 ;; ssissssiiiiii",
"iiiiiiii+w+ =&& ff iiiissssiiiii",
"iiiiiiiii+++ 33 ff iiiiiissiiiii",
"iiiiiiiiiiiii     iiiiiiiiiiiiii",
"sssiiiiiiiis% qq> 1iiiiiiiiiiiii",
"isssiiiii111 >>-- 1111iiiisssiii",
"iisssiii1111      11111iiiisssii",
"iiiesiiii1111111111111iiiiiisssi",
"iiiiiiiiiiii1111111iiiiiiiiiiesi",
"iiiiiiiiiiiiiiiiiiiiiiiiiiiiiiii",
"iiiiiiiiiiiiiiiiiiiiiiiiiiiiiiii"
};
