/* XPM */
static char *_7074995bb8a4773d6500f0eb938e73aGCxQEGPu3PQWKdEv[] = {
/* columns rows colors chars-per-pixel */
"32 32 47 1 ",
"  c #0E0403",
". c #190C05",
"X c #061503",
"o c #061800",
"O c gray9",
"+ c #200909",
"@ c #301410",
"# c #0E2709",
"$ c #0C3000",
"% c #1C3000",
"& c #333D11",
"* c #431F0C",
"= c #751B1B",
"- c #55210B",
"; c #57221A",
": c #693913",
"> c #7A371A",
", c #5F3824",
"< c #424E00",
"1 c #435228",
"2 c #6A4834",
"3 c #65752B",
"4 c #253B60",
"5 c #6A6563",
"6 c #746B68",
"7 c #844100",
"8 c #8D4F1E",
"9 c #A97016",
"0 c #975025",
"q c #AA5427",
"w c #8D7D78",
"e c #6A8937",
"r c #788A31",
"t c #8AA000",
"y c #A4BB00",
"u c #889F2F",
"i c #8E9E3E",
"p c #C88F38",
"a c #B88555",
"s c #A7B145",
"d c #D7B25D",
"f c #FFB773",
"g c #AA9B89",
"h c #BAAB97",
"j c #AAAAAE",
"k c #FFE5AA",
"l c white",
/* pixels */
"iiiiiiiiiiiiiiiiiisiiiiiiiiiiiii",
"iiiiiiiiiiiiiiiiiissiiiiiiiiiiii",
"iiiiiiiiiiiiiiiiiiissiiiiiiiiiii",
"ssssiiiiiiiiii&&&&issiissiiiiiii",
"issssisssii$<<ruuu&&siiissiiiiii",
"iiissiissso<tyyruuur&&iiissiiiii",
"iiiiiiiis8dp97tyrruuur&iessiiiii",
"iiiiiii::p99p9dtyrurrur&iesiiiii",
"iiiiiii:999999p7trrrrrr#iiiiiiii",
"sssiiiii:9.a999p<yrrrrr#iiiiiiii",
"isssiiiii:...999<t@@@@@r#isssiii",
"iisssiiiii.4ja99:@afk@3r#iisssii",
"iiiesiiii.aOlf99:af@@33rXiiisssi",
"iiiiiiiii.ffffp9:f@33XrrXiiiiesi",
"iiiiiiiiii*ffp9:fX33XiXrXiiiiiii",
"iiiiiiiii++..99:.XXXiiX3Xiiiiiii",
"iiiiiiii+h666  0, iiiiX3Xiiiiiii",
"iiiiiii+h655 3 00  iiiiXiiiiiiii",
"iiiiiii+g6   rr 0, siiiiiiiiiiii",
"ssssiii+g f+rrr 00 ssiiiiiiiiiii",
"issssii+w f 222 ;; ssisssiiiiiii",
"iiississ+w+ 3=3 ff esiisssiiiiii",
"iiiiiiiss++ =&& ff iiiiisssiiiii",
"iiiiiiiiissi 33   iiiiiiiesiiiii",
"iiiiiiiiiiiii     iiiiiiiiiiiiii",
"iiiiiiiiiiii% qq> 1iiiiiiiiiiiii",
"ssssiiiii111 >>-- 1111iiiiiiiiii",
"issssiii1111      11111iiissssii",
"iiissiiii1111111111111iiiiissssi",
"iiiiiiiiiiii1111111iiiiiiiiiissi",
"iiiiiiiiiiiiiiiiiiiiiiiiiiiiiiii",
"iiiiiiiiiiiiiiiiiiiiiiiiiiiiiiii"
};
