/* XPM */
static char *_e2af334a4814e75d0987ae73814afadzM3u0qfOoSq1Q4EB[] = {
/* columns rows colors chars-per-pixel */
"32 32 124 2 ",
"   c #010103",
".  c #020003",
"X  c #000302",
"o  c #010302",
"O  c #050100",
"+  c #060000",
"@  c #040003",
"#  c #000400",
"$  c #000600",
"%  c #000402",
"&  c #000502",
"*  c #050601",
"=  c #000004",
"-  c #020006",
";  c #000306",
":  c #040005",
">  c #050005",
",  c #040006",
"<  c #050007",
"1  c #000605",
"2  c #0E0000",
"3  c #080206",
"4  c #000800",
"5  c #000900",
"6  c #000A00",
"7  c #060805",
"8  c #000C06",
"9  c #0D0A00",
"0  c #020008",
"q  c #00000E",
"w  c #00010E",
"e  c #04000F",
"r  c #03060F",
"t  c #000C0C",
"y  c #000F0D",
"u  c #150300",
"i  c #020013",
"p  c #040012",
"a  c #080012",
"s  c #0B0017",
"d  c #030119",
"f  c #020919",
"g  c #2B1D1F",
"h  c #060023",
"j  c #070025",
"k  c #0A0C25",
"l  c #110128",
"z  c #2C2422",
"x  c #3C2C27",
"c  c #302639",
"v  c #563A3F",
"b  c #256434",
"n  c #307B37",
"m  c #645830",
"M  c #645930",
"N  c #645931",
"B  c #665830",
"V  c #645A30",
"C  c #665E35",
"Z  c #70693C",
"A  c #72683C",
"S  c #706A3C",
"D  c #706B3C",
"F  c #72683E",
"G  c #706C3C",
"H  c #726F3F",
"J  c #70703F",
"K  c #79584F",
"L  c #766A40",
"P  c #94785C",
"I  c #29973B",
"U  c #4C8E3D",
"Y  c #2ECA35",
"T  c #328E41",
"R  c #3ABE41",
"E  c #6ADD4B",
"W  c #F0CE39",
"Q  c #EED230",
"!  c #F6D633",
"~  c #C8B060",
"^  c #F1D742",
"/  c #EBD450",
"(  c #EED255",
")  c #F4C776",
"_  c #E0D078",
"`  c #6F55C3",
"'  c #664FD1",
"]  c #6643DF",
"[  c #6D49DF",
"{  c #6A45E0",
"}  c #6945E7",
"|  c #694BE7",
" . c #6C48E6",
".. c #6D47EA",
"X. c #6E48ED",
"o. c #7A46E6",
"O. c #7341EE",
"+. c #6540F0",
"@. c #6F42F7",
"#. c #7144F9",
"$. c #7644FD",
"%. c #A89BAD",
"&. c #AC9DB4",
"*. c #ABA0B0",
"=. c #C3BFBE",
"-. c #C2BEBF",
";. c #8586D6",
":. c #8D8AD1",
">. c #928AD5",
",. c #9292DC",
"<. c #898BE2",
"1. c #8B8DE0",
"2. c #8587F4",
"3. c #8C84F4",
"4. c #8B83FD",
"5. c #8983FF",
"6. c #938AF3",
"7. c #C4BDC5",
"8. c #FAFEDB",
"9. c #E9E7F2",
"0. c #EAEAF2",
"q. c #EEEBF2",
"w. c #EFE9F5",
"e. c #E7E4FF",
/* pixels */
"R R R R R R R R R R R R R R R $ 5 R R R R R R R R R R R R R R R ",
"R R R R R R R R R R R R R R t 1.:.8 R R R R E R R R R E R R R R ",
"R R E R R R R R R R R R E R 0 <.e.$ R R R R I E R R R R R R R R ",
"E R E E R E R R R R R R E R i  .;.= R R R R R E R E R R R R R R ",
"E E E E E E R R R R R R I R e #.4.5 R R R R R I R E R R R R R R ",
"I E E I E I R R E R R R 1 9 h X.3.w * t R R R R R R R R R R R R ",
"R I I I I R R R R R R 5 ,.d ' $.| ` p >.5 R R R R R R R R R R R ",
"R R R R R R R R R R R < 6.2.j +.o.s ..4.$ R R R R R R R R E R R ",
"R R R R R R R R R E R < ] a ( u = / l { $ R R R R R R R R R R R ",
"R R R R R R R R E K K < @.3 ! ) 8.W r O.$ K K R R R R R R R R R ",
"R R R R R K K v v v ~ o } _ 2 Q ^ = _ [ 5 ~ v v v K K R R R R R ",
"R R R R K P P K v ~ _ _ k _ < + < w _ f _ _ ~ v K P P K R R R R ",
"R R R v K P x x g H _ _ ~ ~ < -.-.+ ~ ~ _ _ _ v K K P K v R R R ",
"R R R v v K K z B A A B J _ + 7.q.$ _ _ ~ _ _ ~ v K K v v R R R ",
"R R R Y v v v v _ A C L A B o 0.9.$ ~ ~ _ ~ _ _ v v v T c R R R ",
"R R R T c c v v _ _ ~ H B B o w.*.o ~ _ _ ~ _ _ v v c T n R R R ",
"R R R R R v v v _ _ _ ~ _ A 7 %.&.o _ _ ~ _ _ ~ v v v n n n R R ",
"R R R v v v K v v _ _ _ ~ ~ _ _ _ _ ~ ~ _ _ _ v v K v v v n R R ",
"R R v K P P K v c ~ _ _ _ _ ~ ~ ~ ~ _ _ _ _ ~ c v K P P K v n R ",
"E v K K K K v v c c ~ _ _ _ _ _ _ _ _ _ _ ~ c c v v K K K K v R ",
"E v v K K v v c v v v v v ~ _ _ _ _ ~ v v v v v c v v K K v Y R ",
"I v v v v v v v v K K v K v v v v v v K v K K v v v v v v v T n ",
"R c Y v v v v v v v K K v K P K K P K v K K v v v v v v Y c T n ",
"R R T c Y c K K K K v K v K K v v K K v K v K K K K c c T c n n ",
"R R R c T v P P P K K v v v v v v v v v v K K P P P v n T n n R ",
"R R R R v K P P K K K v v c v Y v Y c v v K K K P P K v n n n R ",
"R E R R v K P K K K v Y v v c T c T v v v v K K K P K v n U n R ",
"R R R E v v K K v Y v T v c n n n T c v Y v v v K K v v n n R R ",
"R R R E E v Y v v T c T c n T n n n n c T c v v Y v v n n n R R ",
"R R R I E I T c c T n n b n n n n n n n n n c c T v n n n R R R ",
"R R R R I I I I n n n n n n n n R R R n n n n n T n n n R R R R ",
"R R R R R R R R R R n n n R R R R R R R R R R n n n R R R R R R "
};
