/* XPM */
static char *result[] = {
/* columns rows colors chars-per-pixel */
"32 32 120 2 ",
"   c #010103",
".  c #020003",
"X  c #000302",
"o  c #010302",
"O  c #050100",
"+  c #060000",
"@  c #040003",
"#  c #000400",
"$  c #000600",
"%  c #000402",
"&  c #000502",
"*  c #050601",
"=  c #000004",
"-  c #020006",
";  c #000306",
":  c #040005",
">  c #050005",
",  c #040006",
"<  c #050007",
"1  c #000605",
"2  c #0E0000",
"3  c #080206",
"4  c #000800",
"5  c #000900",
"6  c #000A00",
"7  c #060805",
"8  c #000C06",
"9  c #0D0A00",
"0  c #020008",
"q  c #00000E",
"w  c #00010E",
"e  c #04000F",
"r  c #03060F",
"t  c #000C0C",
"y  c #000F0D",
"u  c #150300",
"i  c #020013",
"p  c #040012",
"a  c #080012",
"s  c #0B0017",
"d  c #030119",
"f  c #020919",
"g  c #070E19",
"h  c #2B1D1F",
"j  c #060023",
"k  c #070025",
"l  c #110128",
"z  c #2C2422",
"x  c #3C2C27",
"c  c #2E2837",
"v  c #645830",
"b  c #645930",
"n  c #645931",
"m  c #665830",
"M  c #645A30",
"N  c #665E35",
"B  c #556337",
"V  c #616935",
"C  c #70693C",
"Z  c #72683C",
"A  c #706A3C",
"S  c #706B3C",
"D  c #72683E",
"F  c #706C3C",
"G  c #726F3F",
"H  c #707439",
"J  c #70703F",
"K  c #533D44",
"L  c #745654",
"P  c #766A40",
"I  c #8D7162",
"U  c #6A8937",
"Y  c #798A3E",
"T  c #8E9E3E",
"R  c #F0CE39",
"E  c #EED230",
"W  c #F6D633",
"Q  c #A7B145",
"!  c #BC9D6C",
"~  c #F1D742",
"^  c #EBD450",
"/  c #EED255",
"(  c #F4C776",
")  c #313E97",
"_  c #33359B",
"`  c #333E98",
"'  c #2F3FA2",
"]  c #3037A0",
"[  c #313CA6",
"{  c #323EA8",
"}  c #333DAB",
"|  c #3D4585",
" . c #39488D",
".. c #354097",
"X. c #33419B",
"o. c #35419C",
"O. c #34409E",
"+. c #37479C",
"@. c #3542A0",
"#. c #5D6F92",
"$. c #606E8E",
"%. c #606B91",
"&. c #667796",
"*. c #617599",
"=. c #61769A",
"-. c #5D70A5",
";. c #5E78A6",
":. c #5C72AC",
">. c #5C73AD",
",. c #6173A6",
"<. c #A89BAD",
"1. c #AC9DB4",
"2. c #9DA1AF",
"3. c #ABA0B0",
"4. c #D4BC84",
"5. c #C3BFBE",
"6. c #C2BEBF",
"7. c #C4BDC5",
"8. c #FAFEDB",
"9. c white",
/* pixels */
"T T T T T T T T T T T T T T T $ 4 T T T T T T T T T T T T T T T ",
"T T T T T T T T T T T T T T t *.$.8 Q T T T T T T T T T T T T T ",
"T T T T T T T T T T T T T T 0 =.2.$ Q Q T T T T Q T T T T T T T ",
"Q Q Q Q T T T T T T T T T T i o.#.; T Q Q T T T Q Q T T T T T T ",
"T Q Q Q Q T T T T T T T T T e { >.4 U Q Q T T T T Q Q T T T T T ",
"T T T Q Q T Q Q Q Q T T 1 9 j @.-.q * y Q T T T T Q Q T T T T T ",
"T T T T T T T Q Q Q Q 5 &.d  .} +.| p %.5 T T T U U Q T T T T T ",
"T T T T T T T T T Q Q < ,.;.k ' _ s O.:.& T T T T U Q T T T T T ",
"T T T T T T T T T T T < ) a / u - ^ l ` & T T T T T T T T T T T ",
"T T T T T T T T T L L < [ 3 W ( 8.R r ] & L L T T T T Q Q T T T ",
"Q Q Q Q T L L K K K ! o X.4.2 E ~ = 4...6 ! K K K L L T Q Q T T ",
"T Q Q Q L I I L K ! 4.4.g 4., + : w 4.f 4.4.! K L I I L T Q Q T ",
"T T T K L I x x h F 4.4.! ! > 6.5.O ! ! 4.4.4.K L L I L K Q Q T ",
"T T T K K L L z v D C M J 4.@ 7.9.# 4.4.! 4.4.! K L L K K U Q T ",
"T T T Y K K K K 4.A N P Z n   9.9.% ! ! 4.! 4.4.K K K B c T T T ",
"T T T B c c K K 4.4.! G b m . 9.3.X ! 4.4.! 4.4.K K c B V T T T ",
"T T T T T K K K 4.4.4.! 4.S 7 <.1.X 4.4.! 4.4.! K K K V V V T T ",
"T Q Q K K K L K K 4.4.4.! ! 4.4.4.4.! ! 4.4.4.K K L K K K V T T ",
"T T K L I I L K c ! 4.4.4.4.! ! ! ! 4.4.4.4.! c K L I I L K V T ",
"T K L L L L K K c c ! 4.4.4.4.4.4.4.4.4.4.! c c K K L L L L K T ",
"T K K L L K K c K K K K K ! 4.4.4.4.! K K K K K c K K L L K Y T ",
"T K K K K K K K K L L K L K K K K K K L K L L K K K K K K K B V ",
"T c Y K K K K K K K L L K L I L L I L K L L K K K K K K Y c B V ",
"T T B c Y c L L L L K L K L L K K L L K L K L L L L c c B c V V ",
"T T T c B K I I I L L K K K K K K K K K K L L I I I K V B V V T ",
"Q Q Q T K L I I L L L K K c K Y K Y c K K L L L I I L K V V V T ",
"T Q Q Q K L I L L L K Y K K c B c B K K K K L L L I L K H V V T ",
"T T Q Q K K L L K Y K B K c V V V B c K Y K K K L L K K H H T T ",
"T T T U Q K Y K K B c B c H B V V V V c B c K K Y K K V H H Q T ",
"T T T T T T B c c B V V V H H V V V V V V V c c B K V V V U Q T ",
"T T T T T T T T V V V V V V V V T T T V V V V V B V V V T T T T ",
"T T T T T T T T T T V V V T T T T T T T T T T V V V T T T T T T "
};
