/* XPM */
static char *result[] = {
/* columns rows colors chars-per-pixel */
"32 32 124 2 ",
"   c #010103",
".  c #020003",
"X  c #000302",
"o  c #010302",
"O  c #050100",
"+  c #060000",
"@  c #040003",
"#  c #000400",
"$  c #000600",
"%  c #000402",
"&  c #000502",
"*  c #050601",
"=  c #000004",
"-  c #020006",
";  c #000306",
":  c #040005",
">  c #050005",
",  c #040006",
"<  c #050007",
"1  c #000605",
"2  c #0E0000",
"3  c #080206",
"4  c #000800",
"5  c #000900",
"6  c #000A00",
"7  c #060805",
"8  c #000C06",
"9  c #0D0A00",
"0  c #020008",
"q  c #00000E",
"w  c #00010E",
"e  c #04000F",
"r  c #03060F",
"t  c #000C0C",
"y  c #000F0D",
"u  c #150300",
"i  c #020013",
"p  c #040012",
"a  c #080012",
"s  c #0B0017",
"d  c #030119",
"f  c #020919",
"g  c #070E19",
"h  c #2B1D1F",
"j  c #060023",
"k  c #070025",
"l  c #110128",
"z  c #2C2422",
"x  c #3C2C27",
"c  c #2E2837",
"v  c #4C5C31",
"b  c #645830",
"n  c #645930",
"m  c #645931",
"M  c #665830",
"N  c #645A30",
"B  c #665E35",
"V  c #556337",
"C  c #616935",
"Z  c #70693C",
"A  c #72683C",
"S  c #706A3C",
"D  c #706B3C",
"F  c #72683E",
"G  c #706C3C",
"H  c #726F3F",
"J  c #707439",
"K  c #70703F",
"L  c #533D44",
"P  c #745654",
"I  c #766A40",
"U  c #8D7162",
"Y  c #6A8937",
"T  c #798A3E",
"R  c #8E9E3E",
"E  c #F0CE39",
"W  c #EED230",
"Q  c #F6D633",
"!  c #A7B145",
"~  c #BC9D6C",
"^  c #F1D742",
"/  c #EBD450",
"(  c #EED255",
")  c #F4C776",
"_  c #313E97",
"`  c #33359B",
"'  c #333E98",
"]  c #2F3FA2",
"[  c #3037A0",
"{  c #313CA6",
"}  c #323EA8",
"|  c #333DAB",
" . c #3D4585",
".. c #39488D",
"X. c #354097",
"o. c #33419B",
"O. c #35419C",
"+. c #34409E",
"@. c #37479C",
"#. c #3542A0",
"$. c #5D6F92",
"%. c #606E8E",
"&. c #606B91",
"*. c #667796",
"=. c #617599",
"-. c #61769A",
";. c #5D70A5",
":. c #5E78A6",
">. c #5C72AC",
",. c #5C73AD",
"<. c #6173A6",
"1. c #AC9DB4",
"2. c #9DA1AF",
"3. c #D4BC84",
"4. c #C3BFBE",
"5. c #C2BEBF",
"6. c #C4BDC5",
"7. c #D4CDD6",
"8. c #D5D0D8",
"9. c #FAFEDB",
"0. c #EAEAF2",
"q. c #EEEBF2",
"w. c #F4F3F9",
"e. c #F7F4FA",
/* pixels */
"R R R R R R R R R R R R R R R $ 4 R ! R R R R R R R R R R R R R ",
"R R R R R R R R R R R R R R t =.%.8 ! ! R R R R R R R R R R R R ",
"R R R R R R R R R R R R R R 0 -.2.$ R ! ! R R R R R R R R R R R ",
"! ! ! ! R R R R R R R R R R i O.$.; R ! ! R R ! ! R R R R R R R ",
"R ! ! ! ! R ! ! ! R R R R R e } ,.4 Y Y ! R R R ! ! R R R R R R ",
"R R R ! ! R R ! ! ! R R 1 9 j #.;.q * y ! R R R R ! ! R R R R R ",
"R R R R R R R R ! ! ! 5 *.d ..| @. .p &.5 R R R Y ! ! R R R R R ",
"R R R R R R R R R Y ! < <.:.k ] ` s +.>.& R R R R Y ! R R R R R ",
"R R R R R R R R R R R < _ a ( u - / l ' & R R R R R R R R R R R ",
"! ! ! R R R R R R P P < { 3 Q ) 9.E r [ & P P R R R R R R R R R ",
"R ! ! ! R P P L L L ~ o o.3.2 W ^ = 3.X.6 ~ L L L P P ! ! R R R ",
"R R ! ! P U U P L ~ 3.3.g 3., + : w 3.f 3.3.~ L P U U P ! ! R R ",
"R R R L P U x x h G 3.3.~ ~ > 5.4.O ~ ~ 3.3.3.L P P U P L ! ! R ",
"R R R L L P P z b F Z N K 3.@ 6.q.# 3.3.~ 3.3.~ L P P L L Y ! R ",
"R R R T L L L L 3.S B I A m   0.w.% ~ ~ 3.~ 3.3.L L L V c R R R ",
"R R R V c c L L 3.3.~ H n M . e.8.X ~ 3.3.~ 3.3.L L c V C R R R ",
"R R R R R L L L 3.3.3.~ 3.D 7 7.1.X 3.3.~ 3.3.~ L L L C C C R R ",
"R R R L L L P L L 3.3.3.~ ~ 3.3.3.3.~ ~ 3.3.3.L L P L L L C R R ",
"R R L P U U P L c ~ 3.3.3.3.~ ~ ~ ~ 3.3.3.3.~ c L P U U P L C R ",
"! L P P P P L L c c ~ 3.3.3.3.3.3.3.3.3.3.~ c c L L P P P P L R ",
"R L L P P L L c L L L L L ~ 3.3.3.3.~ L L L L L c L L P P L T R ",
"R L L L L L L L L P P L P L L L L L L P L P P L L L L L L L V C ",
"R c T L L L L L L L P P L P U P P U P L P P L L L L L L T c V C ",
"R R V c T c P P P P L P L P P L L P P L P L P P P P c c V c C C ",
"R R R c V L U U U P P L L L L L L L L L L P P U U U L C V C C R ",
"R R R R L P U U P P P L L c L T L T c L L P P P U U P L C C C R ",
"! ! ! ! L P U P P P L T L L c V c V L L L L P P P U P L C C C R ",
"R ! ! ! L L P P L T L V L c C C C V c L T L L L P P L L J J R R ",
"R R R ! ! L T L L V c V c J V C C C C c V c L L T L L J J J ! R ",
"R R R R R R V c c V C C C v J C C C C C C C c c V L C C C ! ! R ",
"R R R R R R R R C C C C C C C C R R R C C C C C V C C C R R R R ",
"R R R R R R R R R R C C C R R R R R R R R R R C C C R R R R R R "
};
