/* XPM */
static char *result[] = {
/* columns rows colors chars-per-pixel */
"32 32 16 1 ",
"  c #2B2F35",
". c #374629",
"X c #475D2A",
"o c #4B5E30",
"O c #54712B",
"+ c #536A31",
"@ c #606A34",
"# c #6F7639",
"$ c #484744",
"% c #65675A",
"& c #6A8937",
"* c #739533",
"= c #79856B",
"- c #8E9E3E",
"; c #99B04F",
": c #A7B145",
/* pixels */
"-------------..--..-------------",
"-::-------...OX..XO...----------",
"--::---...XOO**OO**OOX...-------",
"---::-.XOO;;O**OO**O;;OOX.------",
"--&::.X**O;;;O****O;;;O**X.-----",
"---&.XO**O*;********;*O**O. ----",
"---.XOOO**O**********O**OOXX ---",
"--:.O*;*OOOO********OOOO*;OX ---",
"--.X.O;*O**************O*;O.X --",
"-.XO**OO****************OOOOXX -",
"-.O*****O**************O**OX.X -",
"-.O**;;*OOOO********OOOO*;;OX. -",
"-.XO*;;O**O**********O**O;;OXX -",
"-..XOOO**O*;;******;;*O*;OOXX. -",
".XOO**O**O;;;*****;;;;O*;XOO.X. ",
".OO***OOOO*;;******;;*OOOOXXXX. ",
"..O**OOO**OOO***O**OOO**OOO.X.. ",
"-.XOO*O***O*O**OO**O*O***OOX   -",
"::.O*OO**O**OOO**OOO**O**OXX. @-",
"-$.XOXOOOO***O****O***OOOO .. $-",
"-$$..OOXOOO*OO****OO*OOOXOO  $*-",
"-$$ XXXOOOXOOOO*OOOXOOOXXX.. $+@",
"- * .. XOXOXOOXOXOOXXXO .XX.  +@",
"--+    .X.OXXXX.XX.X.XX. X. + @@",
"-:: +$=  XX.X..... . .X. . @+@@-",
"--::$%== ... ..  ..  ..   %$@@@-",
"---:$%=%%   $  +   $$  %%=%$#@@-",
"--&:$$%%$*$+$ #@@+ $*$$$%%$$##--",
"---&:$*$$+ + o+@@@@ + $$*$$@##:-",
"------+  +@@@o#@@@@@@@  +$@@@&:-",
"--------@@@@@@@@---@@@@@+@@@----",
"----------@@@----------@@@------"
};
