/* XPM */
static char *faa39b5a9a11448dae5c50277b62713bYQvrgIpO0EkvHopG[] = {
/* columns rows colors chars-per-pixel */
"32 32 16 1 ",
"  c #2B2F35",
". c #246633",
"X c #2E7E36",
"o c #2D5B43",
"O c #2B7D4A",
"+ c #484744",
"@ c #65675A",
"# c #29973B",
"$ c #4B903C",
"% c #328E53",
"& c #299750",
"* c #3ABE41",
"= c #79856B",
"- c #2ECA5C",
"; c #6ADD4B",
": c #50EB6C",
/* pixels */
"*************oo**oo*************",
"**********ooo&OooO&ooo;****;****",
"**;****oooO&&--&&--&&Oooo*******",
";*;;*;oO&&::&--&&--&::&&Oo******",
";;;;;oO--&:::&----&:::&--Oo*****",
"#;;#oO&--&-:--------:-&--&o ****",
"*##oO&&&--&----------&--&&OO ***",
"***o&-:-&&&&--------&&&&-:&O ;**",
"**oOo&:-&--------------&-:&oO **",
"*oO&--&&----------------&&&&OO *",
"*o&-----&--------------&--&OoO *",
"*o&--::-&&&&--------&&&&-::&Oo *",
"*oO&-::&--&----------&--&::&OO *",
"*ooO&&&--&-::------::-&-:&&OOo *",
"oO&&--&--&:::-----::::&-:O&&oOo ",
"o&&---&&&&-::------::-&&&&OOOOo ",
"oo&--&&&--&&&---&--&&&--&&&oOoo ",
"*oO&&-&---&-&--&&--&-&---&&O   *",
"**o&-&&--&--&&&--&&&--&--&OOo X*",
";+oO&O&&&&---&----&---&&&& oo +*",
";++oo&&O&&&-&&----&&-&&&O&&  +-*",
"#++ OOO&&&O&&&&-&&&O&&&OOOoo +%X",
"* - oo O&O&O&&O&O&&OOO& oOOo  %X",
"**%    oOo&OOOOoOOoOoOOo Oo % XX",
"*** %+=  OOoOooooo o oOo o X%XX*",
"****+@== ooo oo  oo  oo   @+XXX*",
"*;**+@=@@   +  %   ++  @@=@+X$X*",
"***;++@@+-+%+ XXX% +-+++@@++XX**",
"***;;+-++% % X%XXXX % ++-++XXX**",
"***#;#%  %XX.XXXXXXXXX  %+XXX***",
"****####XXXXXXXX***XXXXX%XXX****",
"**********XXX**********XXX******"
};
